<?xml version="1.0" standalone="no"?>
<!DOCTYPE svg PUBLIC "-//W3C//DTD SVG 20010904//EN"
 "http://www.w3.org/TR/2001/REC-SVG-20010904/DTD/svg10.dtd">
<svg version="1.0" xmlns="http://www.w3.org/2000/svg"
 width="500.000000pt" height="500.000000pt" viewBox="0 0 500.000000 500.000000"
 preserveAspectRatio="xMidYMid meet">

<g transform="translate(0.000000,500.000000) scale(0.100000,-0.100000)"
fill="#000000" stroke="none">
<path d="M0 2500 l0 -2500 2500 0 2500 0 0 2500 0 2500 -2500 0 -2500 0 0
-2500z m2591 1168 c76 -26 132 -93 145 -175 l7 -43 -50 0 c-48 0 -49 0 -63 42
-28 81 -131 115 -207 68 -58 -35 -63 -56 -63 -285 l0 -205 -50 0 -50 0 0 208
c0 115 5 224 11 245 13 49 73 115 124 138 46 21 145 25 196 7z m-351 -293 c0
-35 -4 -47 -17 -51 -53 -16 -85 -37 -103 -66 -40 -67 -16 -165 50 -200 30 -16
60 -18 237 -18 l203 0 0 -51 0 -51 -222 4 c-205 3 -226 5 -263 25 -86 46 -119
107 -120 219 0 72 3 85 30 129 35 56 114 105 171 105 34 0 34 0 34 -45z m604
34 c114 -32 183 -180 145 -310 -24 -79 -104 -144 -185 -151 l-39 -3 -3 47 c-3
45 -2 46 30 53 18 4 44 15 57 23 50 33 67 131 31 189 -35 58 -56 63 -285 63
l-205 0 0 50 0 50 208 0 c116 0 224 -5 246 -11z m-106 -341 l-3 -223 -28 -48
c-15 -26 -47 -60 -69 -75 -36 -23 -54 -27 -128 -30 -73 -3 -94 0 -128 17 -68
35 -122 118 -122 190 0 18 6 21 48 21 l48 0 12 -44 c16 -62 58 -91 132 -91 60
0 91 16 121 62 17 25 19 50 19 236 l0 207 51 0 50 0 -3 -222z m-1095 -520 c17
-13 187 -417 187 -444 0 -9 -13 -14 -38 -14 l-38 0 -70 174 c-38 96 -73 176
-78 178 -5 1 -24 -35 -42 -82 l-32 -85 39 -6 c43 -6 41 -4 56 -40 16 -38 0
-49 -73 -49 l-61 0 -17 -45 c-17 -43 -20 -45 -57 -45 -29 0 -39 4 -39 16 0 26
163 417 182 436 21 21 57 23 81 6z m-671 -15 c8 -10 55 -90 104 -178 l89 -160
5 175 5 175 38 3 37 3 0 -215 c0 -182 -2 -217 -16 -230 -20 -20 -88 -21 -107
-1 -8 7 -57 89 -108 181 l-94 166 -5 -178 -5 -179 -35 0 -35 0 -3 214 c-2 149
1 218 9 227 17 21 102 18 121 -3z m1312 -163 c-1 -265 -13 -280 -214 -280
l-110 0 0 40 0 40 103 0 c144 0 140 -4 145 164 l4 135 -78 3 -79 3 -3 38 -3
38 118 -3 118 -3 -1 -175z m524 143 l-3 -38 -77 -3 -78 -3 -2 -187 -3 -187
-37 -3 -38 -3 0 190 0 190 -77 3 -78 3 -3 38 -3 37 201 0 201 0 -3 -37z m482
2 c0 -29 -4 -36 -26 -41 -27 -7 -313 4 -326 13 -10 5 -10 47 -1 56 3 4 84 7
180 7 l173 0 0 -35z m468 -2 l-3 -38 -119 -3 c-67 -1 -126 -7 -133 -14 -20
-17 -18 -251 3 -272 12 -13 40 -16 135 -16 l119 0 0 -41 0 -41 -139 4 c-151 3
-165 8 -197 70 -22 42 -19 282 4 328 26 53 50 60 200 60 l133 0 -3 -37z m210
-61 l3 -93 107 3 107 3 3 93 3 92 34 0 35 0 0 -230 0 -230 -35 0 -34 0 -3 98
-3 97 -107 3 -107 3 -3 -98 -3 -98 -37 -3 -38 -3 0 231 0 231 38 -3 37 -3 3
-93z m-688 -127 l0 -34 -132 -3 c-124 -3 -133 -4 -136 -23 -1 -11 4 -31 11
-45 12 -24 17 -25 137 -30 l125 -5 0 -45 0 -45 -116 -3 c-146 -3 -187 8 -212
61 -19 37 -27 173 -12 197 4 6 70 10 171 10 l164 0 0 -35z m-1744 -437 c1 -39
-9 -50 -20 -23 -3 8 -10 15 -16 15 -5 0 -10 -7 -10 -15 0 -8 -4 -15 -10 -15
-5 0 -10 11 -10 25 0 20 5 25 28 26 20 1 22 2 7 6 -38 9 -42 25 -5 21 33 -3
35 -5 36 -40z m164 32 c0 -5 -13 -10 -30 -10 -16 0 -30 5 -30 10 0 6 14 10 30
10 17 0 30 -4 30 -10z m165 -27 c15 -35 12 -60 -4 -34 -7 10 -13 11 -31 1 -12
-6 -24 -10 -26 -7 -7 7 26 77 36 77 5 0 17 -16 25 -37z m180 17 c11 -35 -3
-60 -36 -60 -27 0 -29 2 -29 40 0 38 2 40 29 40 21 0 32 -6 36 -20z m148 5 c4
8 11 15 16 15 5 0 2 -18 -7 -40 -19 -45 -28 -50 -35 -17 -2 12 -8 31 -12 42
-8 19 -8 19 12 2 18 -16 21 -16 26 -2z m315 1 c-10 -7 -18 -25 -18 -40 0 -14
-4 -26 -10 -26 -5 0 -10 14 -10 30 0 17 -4 30 -10 30 -5 0 -10 5 -10 10 0 6
17 10 38 10 33 -1 35 -2 20 -14z m177 -26 c0 -32 -3 -35 -32 -38 -32 -3 -33
-3 -33 38 0 41 1 41 33 38 29 -3 32 -6 32 -38z m295 30 c0 -5 -10 -11 -22 -11
l-23 -2 23 -4 c15 -3 22 -11 22 -29 0 -20 -5 -24 -30 -24 -38 0 -40 20 -2 21
l27 1 -25 7 c-15 4 -26 15 -28 29 -3 19 1 22 27 22 17 0 31 -4 31 -10z m120
-20 c0 -20 5 -30 15 -30 10 0 15 10 15 30 0 17 5 30 11 30 6 0 9 -16 7 -37 -3
-35 -6 -38 -33 -38 -27 0 -30 3 -33 38 -2 21 1 37 7 37 6 0 11 -13 11 -30z
m211 23 c6 -65 -3 -96 -17 -58 -8 21 -32 19 -37 -2 -3 -11 -5 -7 -6 10 -1 23
3 27 27 28 l27 2 -27 4 c-16 2 -28 9 -28 14 0 11 60 12 61 2z m139 -37 c1 -6
8 1 16 17 22 41 34 32 17 -13 -9 -22 -21 -40 -28 -40 -10 0 -35 54 -35 76 1
12 30 -27 30 -40z m205 34 c-3 -5 -17 -10 -30 -10 -13 0 -27 5 -30 10 -4 6 8
10 30 10 22 0 34 -4 30 -10z m-1955 -30 c0 -5 -10 -11 -22 -11 l-23 -2 23 -4
c32 -6 27 -25 -5 -21 -20 2 -29 9 -31 26 -3 19 1 22 27 22 17 0 31 -4 31 -10z
m1950 0 c0 -5 -10 -11 -22 -11 -21 -1 -21 -2 -3 -6 36 -9 41 -23 8 -23 -34 0
-48 12 -39 35 6 17 56 21 56 5z"/>
<path d="M1830 1890 c0 -5 5 -10 10 -10 6 0 10 5 10 10 0 6 -4 10 -10 10 -5 0
-10 -4 -10 -10z"/>
<path d="M1990 1890 c0 -13 7 -20 20 -20 13 0 20 7 20 20 0 13 -7 20 -20 20
-13 0 -20 -7 -20 -20z"/>
<path d="M2630 1890 c0 -13 7 -20 20 -20 13 0 20 7 20 20 0 13 -7 20 -20 20
-13 0 -20 -7 -20 -20z"/>
</g>
</svg>
